<svg xmlns="http://www.w3.org/2000/svg" xmlns:xlink="http://www.w3.org/1999/xlink" width="160" zoomAndPan="magnify" viewBox="0 0 375 374.999991" height="120" preserveAspectRatio="xMidYMid meet" version="1.0"><defs><g/></defs><g fill="#8f27bf" fill-opacity="1"><g transform="translate(11.243713, 218.263572)"><g><path d="M 84.789062 -74.378906 L 84.789062 -77.890625 C 74.003906 -77.515625 62.589844 -77.515625 51.800781 -77.890625 L 51.800781 -74.378906 C 58.574219 -73.878906 60.957031 -72.5 60.957031 -68.109375 L 60.957031 -19.816406 C 57.699219 -12.542969 50.800781 -3.886719 40.640625 -3.886719 C 31.105469 -3.886719 25.839844 -11.414062 25.839844 -23.707031 L 25.839844 -68.109375 C 25.839844 -72.5 28.222656 -73.878906 34.871094 -74.378906 L 34.871094 -77.890625 C 24.082031 -77.515625 12.667969 -77.515625 1.882812 -77.890625 L 1.882812 -74.378906 C 8.65625 -73.878906 11.039062 -72.5 11.039062 -68.109375 L 11.039062 -23.707031 C 11.039062 -8.78125 20.570312 1.253906 36 1.253906 C 49.671875 1.253906 57.195312 -6.648438 60.957031 -13.796875 L 60.957031 -10.160156 C 60.957031 -6.398438 60.207031 -4.515625 58.703125 -3.511719 L 58.703125 0 C 66.226562 -0.375 74.003906 -0.375 84.789062 0 L 84.789062 -3.511719 C 78.144531 -4.015625 75.757812 -5.519531 75.757812 -8.65625 L 75.757812 -68.109375 C 75.757812 -72.5 78.144531 -73.878906 84.789062 -74.378906 Z M 84.789062 -74.378906 "/></g></g></g><g fill="#ffb689" fill-opacity="1"><g transform="translate(90.392145, 218.263572)"><g><path d="M 70.117188 -13.546875 L 46.160156 -78.519531 L 37.503906 -78.519531 L 14.675781 -12.417969 C 12.667969 -6.648438 9.53125 -4.140625 1.253906 -3.511719 L 1.253906 0 C 10.410156 -0.375 21.199219 -0.375 30.480469 0 L 30.480469 -3.511719 C 22.328125 -4.140625 17.433594 -5.769531 19.066406 -10.535156 L 24.082031 -25.460938 L 50.421875 -25.460938 L 55.691406 -11.039062 C 57.574219 -6.019531 56.570312 -4.140625 48.164062 -3.511719 L 48.164062 0 C 59.453125 -0.375 71.117188 -0.375 82.40625 0 L 82.40625 -3.511719 C 73.628906 -4.140625 72.5 -7.148438 70.117188 -13.546875 Z M 25.460938 -29.601562 L 36.625 -63.214844 L 48.917969 -29.601562 Z M 25.460938 -29.601562 "/></g></g></g><path stroke-linecap="butt" transform="matrix(0.75, 0, 0, 0.75, 169.497241, 152.307777)" fill="none" stroke-linejoin="miter" d="M -0.00152909 1.001089 L 215.331818 1.001089 " stroke="#8f27bf" stroke-width="2" stroke-opacity="1" stroke-miterlimit="4"/><path stroke-linecap="butt" transform="matrix(0.75, 0, 0, 0.75, 180.041198, 222.21227)" fill="none" stroke-linejoin="miter" d="M 0.00236063 0.998223 L 227.038834 0.998223 " stroke="#ffb689" stroke-width="2" stroke-opacity="1" stroke-miterlimit="4"/><g fill="#ffb689" fill-opacity="1"><g transform="translate(180.041198, 181.499988)"><g><path d="M 8.4375 0.25 C 6.289062 0.25 4.617188 -0.335938 3.421875 -1.515625 C 2.234375 -2.703125 1.640625 -4.394531 1.640625 -6.59375 L 1.640625 -14.984375 L 5.109375 -14.984375 L 5.109375 -6.71875 C 5.109375 -4.039062 6.222656 -2.703125 8.453125 -2.703125 C 9.535156 -2.703125 10.363281 -3.023438 10.9375 -3.671875 C 11.507812 -4.316406 11.796875 -5.332031 11.796875 -6.71875 L 11.796875 -14.984375 L 15.21875 -14.984375 L 15.21875 -6.59375 C 15.21875 -4.394531 14.617188 -2.703125 13.421875 -1.515625 C 12.234375 -0.335938 10.570312 0.25 8.4375 0.25 Z M 8.4375 0.25 "/></g></g></g><g fill="#ffb689" fill-opacity="1"><g transform="translate(207.108176, 181.499988)"><g><path d="M 1.78125 -14.984375 L 8.578125 -14.984375 C 10.210938 -14.984375 11.648438 -14.671875 12.890625 -14.046875 C 14.140625 -13.429688 15.109375 -12.554688 15.796875 -11.421875 C 16.492188 -10.296875 16.84375 -8.984375 16.84375 -7.484375 C 16.84375 -5.992188 16.492188 -4.679688 15.796875 -3.546875 C 15.109375 -2.421875 14.140625 -1.546875 12.890625 -0.921875 C 11.648438 -0.304688 10.210938 0 8.578125 0 L 1.78125 0 Z M 8.40625 -2.84375 C 9.90625 -2.84375 11.101562 -3.257812 12 -4.09375 C 12.894531 -4.925781 13.34375 -6.054688 13.34375 -7.484375 C 13.34375 -8.910156 12.894531 -10.039062 12 -10.875 C 11.101562 -11.71875 9.90625 -12.140625 8.40625 -12.140625 L 5.25 -12.140625 L 5.25 -2.84375 Z M 8.40625 -2.84375 "/></g></g></g><g fill="#ffb689" fill-opacity="1"><g transform="translate(234.988737, 181.499988)"><g><path d="M 15.515625 -14.984375 L 15.515625 0 L 12.046875 0 L 12.046875 -6.140625 L 5.25 -6.140625 L 5.25 0 L 1.78125 0 L 1.78125 -14.984375 L 5.25 -14.984375 L 5.25 -9.078125 L 12.046875 -9.078125 L 12.046875 -14.984375 Z M 15.515625 -14.984375 "/></g></g></g><g fill="#ffb689" fill-opacity="1"><g transform="translate(262.483915, 181.499988)"><g><path d="M 11.640625 -3.203125 L 4.6875 -3.203125 L 3.359375 0 L -0.1875 0 L 6.484375 -14.984375 L 9.90625 -14.984375 L 16.609375 0 L 12.96875 0 Z M 10.546875 -5.84375 L 8.171875 -11.578125 L 5.796875 -5.84375 Z M 10.546875 -5.84375 "/></g></g></g><g fill="#ffb689" fill-opacity="1"><g transform="translate(289.079868, 181.499988)"><g><path d="M 16.1875 -14.984375 L 9.703125 0 L 6.265625 0 L -0.1875 -14.984375 L 3.546875 -14.984375 L 8.109375 -4.28125 L 12.734375 -14.984375 Z M 16.1875 -14.984375 "/></g></g></g><g fill="#8f27bf" fill-opacity="1"><g transform="translate(180.041198, 207.749986)"><g><path d="M 11.640625 -3.203125 L 4.6875 -3.203125 L 3.359375 0 L -0.1875 0 L 6.484375 -14.984375 L 9.90625 -14.984375 L 16.609375 0 L 12.96875 0 Z M 10.546875 -5.84375 L 8.171875 -11.578125 L 5.796875 -5.84375 Z M 10.546875 -5.84375 "/></g></g></g><g fill="#8f27bf" fill-opacity="1"><g transform="translate(206.637148, 207.749986)"><g><path d="M 11.90625 -7.734375 L 15.0625 -7.734375 L 15.0625 -1.640625 C 14.25 -1.035156 13.304688 -0.566406 12.234375 -0.234375 C 11.171875 0.0859375 10.097656 0.25 9.015625 0.25 C 7.453125 0.25 6.050781 -0.078125 4.8125 -0.734375 C 3.570312 -1.398438 2.597656 -2.320312 1.890625 -3.5 C 1.179688 -4.675781 0.828125 -6.003906 0.828125 -7.484375 C 0.828125 -8.972656 1.179688 -10.304688 1.890625 -11.484375 C 2.597656 -12.660156 3.578125 -13.578125 4.828125 -14.234375 C 6.085938 -14.898438 7.503906 -15.234375 9.078125 -15.234375 C 10.390625 -15.234375 11.578125 -15.007812 12.640625 -14.5625 C 13.710938 -14.125 14.613281 -13.488281 15.34375 -12.65625 L 13.125 -10.59375 C 12.050781 -11.71875 10.757812 -12.28125 9.25 -12.28125 C 8.289062 -12.28125 7.441406 -12.082031 6.703125 -11.6875 C 5.960938 -11.289062 5.382812 -10.726562 4.96875 -10 C 4.550781 -9.269531 4.34375 -8.429688 4.34375 -7.484375 C 4.34375 -6.554688 4.550781 -5.726562 4.96875 -5 C 5.382812 -4.28125 5.957031 -3.71875 6.6875 -3.3125 C 7.425781 -2.90625 8.265625 -2.703125 9.203125 -2.703125 C 10.203125 -2.703125 11.101562 -2.914062 11.90625 -3.34375 Z M 11.90625 -7.734375 "/></g></g></g><g fill="#8f27bf" fill-opacity="1"><g transform="translate(233.340158, 207.749986)"><g><path d="M 11.640625 -3.203125 L 4.6875 -3.203125 L 3.359375 0 L -0.1875 0 L 6.484375 -14.984375 L 9.90625 -14.984375 L 16.609375 0 L 12.96875 0 Z M 10.546875 -5.84375 L 8.171875 -11.578125 L 5.796875 -5.84375 Z M 10.546875 -5.84375 "/></g></g></g><g fill="#8f27bf" fill-opacity="1"><g transform="translate(259.936106, 207.749986)"><g><path d="M 11.328125 0 L 8.4375 -4.171875 L 5.25 -4.171875 L 5.25 0 L 1.78125 0 L 1.78125 -14.984375 L 8.265625 -14.984375 C 9.585938 -14.984375 10.738281 -14.757812 11.71875 -14.3125 C 12.695312 -13.875 13.445312 -13.25 13.96875 -12.4375 C 14.5 -11.625 14.765625 -10.660156 14.765625 -9.546875 C 14.765625 -8.429688 14.5 -7.46875 13.96875 -6.65625 C 13.4375 -5.851562 12.675781 -5.238281 11.6875 -4.8125 L 15.046875 0 Z M 11.265625 -9.546875 C 11.265625 -10.390625 10.988281 -11.035156 10.4375 -11.484375 C 9.894531 -11.929688 9.101562 -12.15625 8.0625 -12.15625 L 5.25 -12.15625 L 5.25 -6.9375 L 8.0625 -6.9375 C 9.101562 -6.9375 9.894531 -7.164062 10.4375 -7.625 C 10.988281 -8.082031 11.265625 -8.722656 11.265625 -9.546875 Z M 11.265625 -9.546875 "/></g></g></g><g fill="#8f27bf" fill-opacity="1"><g transform="translate(285.868347, 207.749986)"><g><path d="M 24.421875 -14.984375 L 19.515625 0 L 15.796875 0 L 12.5 -10.140625 L 9.09375 0 L 5.390625 0 L 0.46875 -14.984375 L 4.0625 -14.984375 L 7.453125 -4.453125 L 10.984375 -14.984375 L 14.1875 -14.984375 L 17.625 -4.359375 L 21.109375 -14.984375 Z M 24.421875 -14.984375 "/></g></g></g><g fill="#8f27bf" fill-opacity="1"><g transform="translate(320.964112, 207.749986)"><g><path d="M 11.640625 -3.203125 L 4.6875 -3.203125 L 3.359375 0 L -0.1875 0 L 6.484375 -14.984375 L 9.90625 -14.984375 L 16.609375 0 L 12.96875 0 Z M 10.546875 -5.84375 L 8.171875 -11.578125 L 5.796875 -5.84375 Z M 10.546875 -5.84375 "/></g></g></g><g fill="#8f27bf" fill-opacity="1"><g transform="translate(347.560065, 207.749986)"><g><path d="M 1.78125 -14.984375 L 5.25 -14.984375 L 5.25 -2.828125 L 12.765625 -2.828125 L 12.765625 0 L 1.78125 0 Z M 1.78125 -14.984375 "/></g></g></g></svg>